<svg width="14" height="14" viewBox="0 0 14 14" fill="none" xmlns="http://www.w3.org/2000/svg">
<path fill-rule="evenodd" clip-rule="evenodd" d="M0.908012 11.6777C0.517488 12.0682 0.517487 12.7014 0.908012 13.0919C1.29854 13.4824 1.9317 13.4824 2.32223 13.0919L7.27197 8.14214L12.2217 13.0919C12.6122 13.4824 13.2454 13.4824 13.6359 13.0919C14.0265 12.7014 14.0265 12.0682 13.6359 11.6777L8.68619 6.72792L13.6359 1.77817C14.0265 1.38765 14.0265 0.754485 13.6359 0.36396C13.2454 -0.0265637 12.6122 -0.0265637 12.2217 0.363961L7.27197 5.31371L2.32223 0.363961C1.9317 -0.0265634 1.29854 -0.0265637 0.908012 0.363961C0.517487 0.754486 0.517487 1.38765 0.908012 1.77817L5.85776 6.72792L0.908012 11.6777Z" fill="black"/>
</svg>
