<svg width="24" height="24" viewBox="0 0 24 24" fill="none" xmlns="http://www.w3.org/2000/svg">
<path d="M13.2041 11.273C13.5781 11.383 13.9341 11.547 14.2611 11.758C14.5961 11.978 14.8761 12.274 15.0771 12.62C15.2861 13.004 15.3921 13.435 15.3841 13.872C15.4017 14.4355 15.2338 14.9892 14.9061 15.448C14.5617 15.919 14.0889 16.2808 13.5441 16.49C12.9578 16.7239 12.3302 16.8365 11.6991 16.821C10.9568 16.8418 10.2205 16.6826 9.55312 16.357C9.1145 16.1261 8.73789 15.7931 8.45512 15.386C8.17218 14.9945 8.01363 14.5269 8.00012 14.044C8.00012 13.8269 8.08636 13.6187 8.23985 13.4652C8.39335 13.3117 8.60154 13.2255 8.81862 13.2255C9.0357 13.2255 9.24389 13.3117 9.39739 13.4652C9.55089 13.6187 9.63712 13.8269 9.63712 14.044C9.65312 14.194 9.71012 14.336 9.80212 14.456C9.93212 14.643 10.1051 14.796 10.3061 14.903C10.7411 15.107 11.2191 15.203 11.6991 15.185C12.1146 15.1983 12.5284 15.1279 12.9161 14.978C13.1761 14.885 13.4041 14.718 13.5721 14.5C13.6974 14.3259 13.7595 14.1142 13.7481 13.9C13.7565 13.735 13.7231 13.5707 13.6511 13.422C13.5767 13.3 13.4751 13.197 13.3541 13.121C13.1602 12.9985 12.9502 12.9036 12.7301 12.839C12.5501 12.785 12.3551 12.732 12.1521 12.679L12.1371 12.677C12.1226 12.6726 12.108 12.6689 12.0931 12.666C11.9581 12.6309 11.8224 12.5982 11.6861 12.568C11.3251 12.49 11.0741 12.428 10.9171 12.38L10.9071 12.374C10.9046 12.3724 10.9019 12.371 10.8991 12.37C10.5361 12.282 10.1791 12.17 9.82912 12.036C9.36765 11.8507 8.96237 11.5484 8.65312 11.159C8.33238 10.7383 8.16481 10.2208 8.17812 9.692C8.17812 9.162 8.35212 8.645 8.67312 8.222C9.00712 7.796 9.45412 7.472 9.96312 7.288C10.5255 7.08531 11.1204 6.98769 11.7181 7C12.1881 6.995 12.6571 7.06 13.1081 7.193C13.4981 7.307 13.8641 7.493 14.1871 7.741C14.4671 7.953 14.6991 8.219 14.8721 8.525C14.9749 8.71609 14.9975 8.94017 14.9351 9.14796C14.8726 9.35575 14.7302 9.53023 14.5391 9.633C14.4445 9.68388 14.3408 9.71564 14.2339 9.72644C14.127 9.73725 14.019 9.72689 13.9162 9.69597C13.7084 9.63352 13.5339 9.49109 13.4311 9.3C13.3615 9.19027 13.2711 9.09516 13.1651 9.02C13.0013 8.90038 12.8174 8.81097 12.6221 8.756C12.328 8.67154 12.0231 8.6311 11.7171 8.636C11.322 8.62449 10.928 8.68446 10.5541 8.813C10.3311 8.889 10.1341 9.023 9.98112 9.203C9.87214 9.34231 9.81299 9.51412 9.81312 9.691C9.79982 9.85605 9.84631 10.0204 9.94412 10.154C10.0781 10.317 10.2511 10.444 10.4481 10.52C10.8299 10.6666 11.2228 10.7823 11.6231 10.866C11.9591 10.94 12.2301 11.006 12.4601 11.069C12.7211 11.134 12.9751 11.203 13.2041 11.273Z" fill="#05091D"/>
<path fill-rule="evenodd" clip-rule="evenodd" d="M7.99998 2.75003C7.10477 2.7498 6.22437 2.97849 5.44244 3.41437C4.66051 3.85025 4.00303 4.47883 3.53246 5.24039C3.0619 6.00195 2.79389 6.87118 2.7539 7.7655C2.71391 8.65982 2.90327 9.54951 3.30398 10.35C3.03481 11.7671 3.11611 13.2286 3.54079 14.6071C3.96548 15.9856 4.72067 17.2394 5.74064 18.2594C6.7606 19.2793 8.01442 20.0345 9.39293 20.4592C10.7714 20.8839 12.2329 20.9652 13.65 20.696C14.6357 21.1896 15.7518 21.3604 16.8401 21.1841C17.9283 21.0079 18.9334 20.4935 19.7129 19.714C20.4925 18.9345 21.0068 17.9293 21.1831 16.8411C21.3594 15.7529 21.1886 14.6368 20.695 13.651C20.9643 12.2339 20.8831 10.7725 20.4586 9.39395C20.034 8.0154 19.279 6.76151 18.2591 5.74145C17.2392 4.72138 15.9855 3.96607 14.607 3.54125C13.2285 3.11643 11.7671 3.035 10.35 3.30403C9.62065 2.93829 8.81588 2.74923 7.99998 2.75003ZM4.24998 8.00003C4.24992 7.3431 4.42242 6.69769 4.75023 6.1284C5.07804 5.55911 5.54965 5.08592 6.11784 4.7562C6.68603 4.42649 7.33086 4.25182 7.98778 4.24968C8.6447 4.24755 9.29066 4.41802 9.86098 4.74403C10.0233 4.83691 10.2145 4.8658 10.397 4.82503C11.6055 4.55452 12.8627 4.59375 14.052 4.93907C15.2413 5.2844 16.324 5.92462 17.1997 6.8003C18.0754 7.67598 18.7156 8.75872 19.0609 9.948C19.4063 11.1373 19.4455 12.3945 19.175 13.603C19.1342 13.7855 19.1631 13.9767 19.256 14.139C19.6653 14.8534 19.8281 15.6827 19.7193 16.4989C19.6104 17.315 19.236 18.0727 18.6538 18.6549C18.0716 19.2371 17.314 19.6115 16.4978 19.7203C15.6817 19.8291 14.8524 19.6663 14.138 19.257C13.9761 19.1641 13.7853 19.1348 13.603 19.175C12.3945 19.4455 11.1372 19.4063 9.94796 19.061C8.75868 18.7157 7.67594 18.0754 6.80026 17.1997C5.92458 16.3241 5.28435 15.2413 4.93903 14.052C4.5937 12.8628 4.55447 11.6055 4.82498 10.397C4.86575 10.2145 4.83686 10.0233 4.74398 9.86103C4.41928 9.29462 4.24894 8.6529 4.24998 8.00003Z" fill="#05091D"/>
</svg>
