<svg width="34" height="32" viewBox="0 0 34 32" fill="none" xmlns="http://www.w3.org/2000/svg">
<path d="M30.3334 7.00004H25.3334V3.66671C25.3334 1.82837 23.8384 0.333374 22 0.333374H12C10.1617 0.333374 8.66671 1.82837 8.66671 3.66671V7.00004H3.66671C1.82837 7.00004 0.333374 8.49504 0.333374 10.3334V28.6667C0.333374 30.505 1.82837 32 3.66671 32H30.3334C32.1717 32 33.6667 30.505 33.6667 28.6667V10.3334C33.6667 8.49504 32.1717 7.00004 30.3334 7.00004ZM22 3.66671V7.00004H12V3.66671H22ZM10.3334 10.3334H30.3334V15.3334H3.66671V10.3334H10.3334ZM3.66671 28.6667V18.6667H13.6667V22H20.3334V18.6667H30.3334L30.335 28.6667H3.66671Z" fill="white"/>
</svg>
