<svg width="34" height="34" viewBox="0 0 34 34" fill="none" xmlns="http://www.w3.org/2000/svg">
<path d="M32.73 5.48163C32.4828 5.35183 32.2069 5.28611 31.9277 5.29047C31.6485 5.29484 31.3748 5.36916 31.1317 5.50663C29.9917 6.15497 28.8734 6.4683 27.71 6.4683C24.3184 6.4683 21.1234 3.7533 18.1734 0.818301C17.5484 0.196634 16.4017 0.196634 15.7767 0.818301C12.9867 3.5983 9.66337 6.4383 6.18337 6.4383C5.03337 6.4383 3.93171 6.13163 2.82004 5.5033C2.32337 5.22663 1.72337 5.2183 1.22004 5.4833C0.716707 5.7483 0.385041 6.25163 0.340041 6.8183C0.321707 7.0333 -1.23329 28.2716 16.4784 33.5533C16.633 33.5998 16.7936 33.6234 16.955 33.6233H17C17.1617 33.6233 17.32 33.6 17.475 33.555C35.2367 28.2716 33.6334 7.0283 33.615 6.81497C33.5912 6.53632 33.4977 6.26814 33.343 6.03513C33.1884 5.80213 32.9776 5.61178 32.73 5.48163ZM16.9767 30.2183C5.34504 26.46 3.75337 14.5316 3.62004 9.4233C4.46171 9.65663 5.31837 9.77163 6.18171 9.77163C10.335 9.77163 13.9317 7.15997 16.975 4.29997C20.13 7.27997 23.6134 9.80163 27.7117 9.80163C28.595 9.80163 29.4734 9.6783 30.3367 9.43497C30.2134 14.5433 28.635 26.4633 16.9767 30.2183Z" fill="white"/>
</svg>
