<svg width="34" height="34" viewBox="0 0 34 34" fill="none" xmlns="http://www.w3.org/2000/svg">
<path d="M17 0.333374C7.81004 0.333374 0.333374 7.81004 0.333374 17C0.333374 26.19 7.81004 33.6667 17 33.6667C26.19 33.6667 33.6667 26.19 33.6667 17C33.6667 7.81004 26.19 0.333374 17 0.333374ZM30.2184 15.3334H25.165C24.8353 13.7339 24.0441 12.2661 22.8892 11.1115C21.7343 9.95684 20.2663 9.16599 18.6667 8.83671V3.78171C21.5998 4.15563 24.3256 5.49293 26.4164 7.5837C28.5071 9.67447 29.8445 12.4003 30.2184 15.3334ZM17 12C19.7567 12 22 14.2434 22 17C22 19.7567 19.7567 22 17 22C14.2434 22 12 19.7567 12 17C12 14.2434 14.2434 12 17 12ZM17 30.3334C9.64837 30.3334 3.66671 24.3517 3.66671 17C3.66671 10.2134 8.76837 4.60671 15.3334 3.78171V8.83504C13.4527 9.22181 11.7628 10.245 10.5484 11.7323C9.33408 13.2196 8.66951 15.08 8.66671 17C8.66671 21.595 12.405 25.3334 17 25.3334C18.92 25.3308 20.7803 24.6663 22.2674 23.4519C23.7544 22.2375 24.7772 20.5474 25.1634 18.6667H30.2167C29.3934 25.2317 23.7867 30.3334 17 30.3334Z" fill="white"/>
</svg>
