<svg width="137" height="27" viewBox="0 0 137 27" fill="none" xmlns="http://www.w3.org/2000/svg">
<path d="M56.196 21.264C55.008 21.264 53.9007 21.0733 52.874 20.692C51.862 20.296 50.982 19.7387 50.234 19.02C49.486 18.3013 48.8993 17.458 48.474 16.49C48.0633 15.522 47.858 14.4587 47.858 13.3C47.858 12.1413 48.0633 11.078 48.474 10.11C48.8993 9.142 49.486 8.29867 50.234 7.58C50.9967 6.86133 51.884 6.31133 52.896 5.93C53.908 5.534 55.0153 5.336 56.218 5.336C57.5527 5.336 58.7553 5.57067 59.826 6.04C60.9113 6.49467 61.8207 7.16933 62.554 8.064L60.266 10.176C59.738 9.57467 59.1513 9.12733 58.506 8.834C57.8607 8.526 57.1567 8.372 56.394 8.372C55.6753 8.372 55.0153 8.48933 54.414 8.724C53.8127 8.95867 53.292 9.296 52.852 9.736C52.412 10.176 52.0673 10.6967 51.818 11.298C51.5833 11.8993 51.466 12.5667 51.466 13.3C51.466 14.0333 51.5833 14.7007 51.818 15.302C52.0673 15.9033 52.412 16.424 52.852 16.864C53.292 17.304 53.8127 17.6413 54.414 17.876C55.0153 18.1107 55.6753 18.228 56.394 18.228C57.1567 18.228 57.8607 18.0813 58.506 17.788C59.1513 17.48 59.738 17.018 60.266 16.402L62.554 18.514C61.8207 19.4087 60.9113 20.0907 59.826 20.56C58.7553 21.0293 57.5453 21.264 56.196 21.264ZM69.9426 21.176C68.6812 21.176 67.5592 20.912 66.5766 20.384C65.6086 19.856 64.8386 19.1373 64.2666 18.228C63.7092 17.304 63.4306 16.2553 63.4306 15.082C63.4306 13.894 63.7092 12.8453 64.2666 11.936C64.8386 11.012 65.6086 10.2933 66.5766 9.78C67.5592 9.252 68.6812 8.988 69.9426 8.988C71.1892 8.988 72.3039 9.252 73.2866 9.78C74.2692 10.2933 75.0392 11.0047 75.5966 11.914C76.1539 12.8233 76.4326 13.8793 76.4326 15.082C76.4326 16.2553 76.1539 17.304 75.5966 18.228C75.0392 19.1373 74.2692 19.856 73.2866 20.384C72.3039 20.912 71.1892 21.176 69.9426 21.176ZM69.9426 18.36C70.5146 18.36 71.0279 18.228 71.4826 17.964C71.9372 17.7 72.2966 17.326 72.5606 16.842C72.8246 16.3433 72.9566 15.7567 72.9566 15.082C72.9566 14.3927 72.8246 13.806 72.5606 13.322C72.2966 12.838 71.9372 12.464 71.4826 12.2C71.0279 11.936 70.5146 11.804 69.9426 11.804C69.3706 11.804 68.8572 11.936 68.4026 12.2C67.9479 12.464 67.5812 12.838 67.3026 13.322C67.0386 13.806 66.9066 14.3927 66.9066 15.082C66.9066 15.7567 67.0386 16.3433 67.3026 16.842C67.5812 17.326 67.9479 17.7 68.4026 17.964C68.8572 18.228 69.3706 18.36 69.9426 18.36ZM85.9206 8.988C86.8592 8.988 87.6952 9.17867 88.4286 9.56C89.1766 9.92667 89.7632 10.4987 90.1886 11.276C90.6139 12.0387 90.8266 13.0213 90.8266 14.224V21H87.3946V14.752C87.3946 13.7987 87.1819 13.0947 86.7566 12.64C86.3459 12.1853 85.7592 11.958 84.9966 11.958C84.4539 11.958 83.9626 12.0753 83.5226 12.31C83.0972 12.53 82.7599 12.8747 82.5106 13.344C82.2759 13.8133 82.1586 14.4147 82.1586 15.148V21H78.7266V9.164H82.0046V12.442L81.3886 11.452C81.8139 10.66 82.4226 10.0513 83.2146 9.626C84.0066 9.20067 84.9086 8.988 85.9206 8.988ZM97.9195 21.176C96.9075 21.176 95.9322 21.0587 94.9935 20.824C94.0695 20.5747 93.3362 20.2667 92.7935 19.9L93.9375 17.436C94.4802 17.7733 95.1182 18.052 95.8515 18.272C96.5995 18.4773 97.3328 18.58 98.0515 18.58C98.8435 18.58 99.4008 18.4847 99.7235 18.294C100.061 18.1033 100.23 17.8393 100.23 17.502C100.23 17.2233 100.098 17.018 99.8335 16.886C99.5842 16.7393 99.2468 16.6293 98.8215 16.556C98.3962 16.4827 97.9268 16.4093 97.4135 16.336C96.9148 16.2627 96.4088 16.1673 95.8955 16.05C95.3822 15.918 94.9128 15.7273 94.4875 15.478C94.0622 15.2287 93.7175 14.8913 93.4535 14.466C93.2042 14.0407 93.0795 13.4907 93.0795 12.816C93.0795 12.068 93.2922 11.408 93.7175 10.836C94.1575 10.264 94.7882 9.81667 95.6095 9.494C96.4308 9.15667 97.4135 8.988 98.5575 8.988C99.3642 8.988 100.186 9.076 101.022 9.252C101.858 9.428 102.554 9.68467 103.112 10.022L101.968 12.464C101.396 12.1267 100.816 11.8993 100.23 11.782C99.6575 11.65 99.1002 11.584 98.5575 11.584C97.7948 11.584 97.2375 11.6867 96.8855 11.892C96.5335 12.0973 96.3575 12.3613 96.3575 12.684C96.3575 12.9773 96.4822 13.1973 96.7315 13.344C96.9955 13.4907 97.3402 13.608 97.7655 13.696C98.1908 13.784 98.6528 13.8647 99.1515 13.938C99.6648 13.9967 100.178 14.092 100.692 14.224C101.205 14.356 101.667 14.5467 102.078 14.796C102.503 15.0307 102.848 15.3607 103.112 15.786C103.376 16.1967 103.508 16.7393 103.508 17.414C103.508 18.1473 103.288 18.8 102.848 19.372C102.408 19.9293 101.77 20.3693 100.934 20.692C100.112 21.0147 99.1075 21.176 97.9195 21.176ZM110.619 21.176C109.636 21.176 108.756 20.9853 107.979 20.604C107.216 20.2227 106.622 19.6433 106.197 18.866C105.772 18.074 105.559 17.0693 105.559 15.852V9.164H108.991V15.346C108.991 16.3287 109.196 17.0547 109.607 17.524C110.032 17.9787 110.626 18.206 111.389 18.206C111.917 18.206 112.386 18.096 112.797 17.876C113.208 17.6413 113.53 17.2893 113.765 16.82C114 16.336 114.117 15.7347 114.117 15.016V9.164H117.549V21H114.293V17.744L114.887 18.69C114.491 19.5113 113.904 20.1347 113.127 20.56C112.364 20.9707 111.528 21.176 110.619 21.176ZM120.729 21V4.676H124.161V21H120.729ZM133.045 21.176C131.652 21.176 130.566 20.824 129.789 20.12C129.012 19.4013 128.623 18.338 128.623 16.93V6.546H132.055V16.886C132.055 17.3847 132.187 17.7733 132.451 18.052C132.715 18.316 133.074 18.448 133.529 18.448C134.072 18.448 134.534 18.3013 134.915 18.008L135.839 20.428C135.487 20.6773 135.062 20.868 134.563 21C134.079 21.1173 133.573 21.176 133.045 21.176ZM126.797 12.068V9.428H135.003V12.068H126.797Z" fill="#05091D"/>
<mask id="mask0_172_172" style="mask-type:luminance" maskUnits="userSpaceOnUse" x="0" y="4" width="39" height="20">
<path d="M39 3.99997H0V23.7825H39V3.99997Z" fill="white"/>
</mask>
<g mask="url(#mask0_172_172)">
<path d="M8.19566 18.1304C8.38122 18.1304 8.56498 18.0939 8.73642 18.0229C8.90786 17.9519 9.06363 17.8478 9.19485 17.7166C9.32607 17.5854 9.43017 17.4296 9.50118 17.2582C9.57219 17.0867 9.60874 16.903 9.60874 16.7174C9.60874 14.0941 10.6509 11.5782 12.5058 9.72322C14.3608 7.86824 16.8767 6.82612 19.5001 6.82612C22.1234 6.82612 24.6393 7.86824 26.4942 9.72322C28.3493 11.5782 29.3914 14.0941 29.3914 16.7174C29.395 17.0897 29.5456 17.4455 29.8102 17.7075C30.0747 17.9694 30.432 18.1164 30.8045 18.1164C31.1767 18.1164 31.5341 17.9694 31.7986 17.7075C32.0632 17.4455 32.2137 17.0897 32.2174 16.7174C32.2174 15.0474 31.8884 13.3937 31.2494 11.8507C30.6102 10.3078 29.6735 8.90583 28.4926 7.72491C27.3116 6.544 25.9097 5.60724 24.3668 4.96814C22.8238 4.32903 21.1702 4.00009 19.5001 4.00009C17.8299 4.00009 16.1763 4.32903 14.6333 4.96814C13.0904 5.60724 11.6884 6.544 10.5075 7.72491C9.32662 8.90583 8.38987 10.3078 7.75076 11.8507C7.11166 13.3937 6.78271 15.0474 6.78271 16.7174C6.78271 17.0922 6.93158 17.4516 7.19655 17.7165C7.46154 17.9815 7.82092 18.1304 8.19566 18.1304Z" fill="#C32A7C"/>
<path d="M37.587 20.9564H25.1476C26.0686 19.7353 26.566 18.247 26.5645 16.7174C26.5645 14.8436 25.82 13.0466 24.4951 11.7216C23.1701 10.3966 21.373 9.65222 19.4992 9.65222C17.6255 9.65222 15.8284 10.3966 14.5034 11.7216C13.1784 13.0466 12.434 14.8436 12.434 16.7174C12.434 17.0922 12.5829 17.4516 12.8479 17.7166C13.1129 17.9816 13.4723 18.1305 13.8471 18.1305C14.2219 18.1305 14.5814 17.9816 14.8463 17.7166C15.1114 17.4516 15.2602 17.0922 15.2602 16.7174C15.2602 15.879 15.5088 15.0594 15.9746 14.3623C16.4404 13.6651 17.1024 13.1218 17.877 12.8009C18.6516 12.48 19.504 12.3961 20.3263 12.5596C21.1486 12.7232 21.904 13.1269 22.4968 13.7197C23.0897 14.3126 23.4934 15.0679 23.657 15.8902C23.8205 16.7125 23.7366 17.5649 23.4158 18.3394C23.0949 19.1141 22.5516 19.7762 21.8545 20.242C21.1573 20.7078 20.3377 20.9564 19.4993 20.9564H1.41305C1.2263 20.9546 1.04103 20.9897 0.867959 21.06C0.694886 21.1301 0.537444 21.2339 0.404728 21.3652C0.272013 21.4967 0.166657 21.653 0.0947583 21.8254C0.0228587 21.9978 -0.0141602 22.1827 -0.0141602 22.3695C-0.0141602 22.5561 0.0228587 22.7411 0.0947583 22.9135C0.166657 23.0858 0.272013 23.2421 0.404728 23.3736C0.537444 23.505 0.694886 23.6088 0.867959 23.6789C1.04103 23.7491 1.2263 23.7843 1.41305 23.7824H37.587C37.9593 23.7788 38.3151 23.6283 38.577 23.3636C38.839 23.0991 38.986 22.7418 38.986 22.3695C38.986 21.9971 38.839 21.6397 38.577 21.3752C38.3151 21.1106 37.9593 20.9601 37.587 20.9564Z" fill="#C32A7C"/>
</g>
</svg>
