<svg display="none" xmlns="http://www.w3.org/2000/svg">

    <symbol id="svg-ico-1" viewBox="0 0 34 32">
        <g>
            <path d="M30.3334 7.00004H25.3334V3.66671C25.3334 1.82837 23.8384 0.333374 22 0.333374H12C10.1617 0.333374 8.66671 1.82837 8.66671 3.66671V7.00004H3.66671C1.82837 7.00004 0.333374 8.49504 0.333374 10.3334V28.6667C0.333374 30.505 1.82837 32 3.66671 32H30.3334C32.1717 32 33.6667 30.505 33.6667 28.6667V10.3334C33.6667 8.49504 32.1717 7.00004 30.3334 7.00004ZM22 3.66671V7.00004H12V3.66671H22ZM10.3334 10.3334H30.3334V15.3334H3.66671V10.3334H10.3334ZM3.66671 28.6667V18.6667H13.6667V22H20.3334V18.6667H30.3334L30.335 28.6667H3.66671Z" />
        </g>
    </symbol>

    <symbol id="svg-ico-2" viewBox="0 0 34 34">
        <g>
           <path d="M32.73 5.48163C32.4828 5.35183 32.2069 5.28611 31.9277 5.29047C31.6485 5.29484 31.3748 5.36916 31.1317 5.50663C29.9917 6.15497 28.8734 6.4683 27.71 6.4683C24.3184 6.4683 21.1234 3.7533 18.1734 0.818301C17.5484 0.196634 16.4017 0.196634 15.7767 0.818301C12.9867 3.5983 9.66337 6.4383 6.18337 6.4383C5.03337 6.4383 3.93171 6.13163 2.82004 5.5033C2.32337 5.22663 1.72337 5.2183 1.22004 5.4833C0.716707 5.7483 0.385041 6.25163 0.340041 6.8183C0.321707 7.0333 -1.23329 28.2716 16.4784 33.5533C16.633 33.5998 16.7936 33.6234 16.955 33.6233H17C17.1617 33.6233 17.32 33.6 17.475 33.555C35.2367 28.2716 33.6334 7.0283 33.615 6.81497C33.5912 6.53632 33.4977 6.26814 33.343 6.03513C33.1884 5.80213 32.9776 5.61178 32.73 5.48163ZM16.9767 30.2183C5.34504 26.46 3.75337 14.5316 3.62004 9.4233C4.46171 9.65663 5.31837 9.77163 6.18171 9.77163C10.335 9.77163 13.9317 7.15997 16.975 4.29997C20.13 7.27997 23.6134 9.80163 27.7117 9.80163C28.595 9.80163 29.4734 9.6783 30.3367 9.43497C30.2134 14.5433 28.635 26.4633 16.9767 30.2183Z" />
        </g>
    </symbol>

    <symbol id="svg-ico-3" viewBox="0 0 34 34">
        <g>
           <path d="M17 0.333374C7.81004 0.333374 0.333374 7.81004 0.333374 17C0.333374 26.19 7.81004 33.6667 17 33.6667C26.19 33.6667 33.6667 26.19 33.6667 17C33.6667 7.81004 26.19 0.333374 17 0.333374ZM30.2184 15.3334H25.165C24.8353 13.7339 24.0441 12.2661 22.8892 11.1115C21.7343 9.95684 20.2663 9.16599 18.6667 8.83671V3.78171C21.5998 4.15563 24.3256 5.49293 26.4164 7.5837C28.5071 9.67447 29.8445 12.4003 30.2184 15.3334ZM17 12C19.7567 12 22 14.2434 22 17C22 19.7567 19.7567 22 17 22C14.2434 22 12 19.7567 12 17C12 14.2434 14.2434 12 17 12ZM17 30.3334C9.64837 30.3334 3.66671 24.3517 3.66671 17C3.66671 10.2134 8.76837 4.60671 15.3334 3.78171V8.83504C13.4527 9.22181 11.7628 10.245 10.5484 11.7323C9.33408 13.2196 8.66951 15.08 8.66671 17C8.66671 21.595 12.405 25.3334 17 25.3334C18.92 25.3308 20.7803 24.6663 22.2674 23.4519C23.7544 22.2375 24.7772 20.5474 25.1634 18.6667H30.2167C29.3934 25.2317 23.7867 30.3334 17 30.3334Z" />
        </g>
    </symbol>

</svg>
