<svg width="46" height="34" viewBox="0 0 46 34" fill="none" xmlns="http://www.w3.org/2000/svg">
<path d="M3.12488 33.9583H42.8749C43.2773 33.957 43.6718 33.846 44.0159 33.6372C44.3599 33.4284 44.6405 33.1298 44.8275 32.7734C45.0144 32.417 45.1006 32.0163 45.0768 31.6146C45.053 31.2128 44.9201 30.8252 44.6923 30.4934L24.8173 1.78505C23.9936 0.594761 22.0106 0.594761 21.1846 1.78505L1.30963 30.4934C1.07958 30.8245 0.944671 31.2123 0.919565 31.6148C0.894459 32.0172 0.980115 32.4188 1.16723 32.7759C1.35434 33.1331 1.63575 33.4321 1.98089 33.6406C2.32602 33.849 2.72169 33.9589 3.12488 33.9583ZM22.9999 6.92164L38.6614 29.5416H7.33838L22.9999 6.92164Z" fill="#C32A7C"/>
</svg>
